<?xml version="1.0" standalone="no"?>
<!DOCTYPE svg PUBLIC "-//W3C//DTD SVG 20010904//EN"
 "http://www.w3.org/TR/2001/REC-SVG-20010904/DTD/svg10.dtd">
<svg version="1.0" xmlns="http://www.w3.org/2000/svg"
 width="288.000000pt" height="288.000000pt" viewBox="0 0 288.000000 288.000000"
 preserveAspectRatio="xMidYMid meet">
<metadata>
Created by potrace 1.14, written by Peter Selinger 2001-2017
</metadata>
<g transform="translate(0.000000,288.000000) scale(0.100000,-0.100000)"
fill="#000000" stroke="none">
<path d="M1263 2466 c-53 -17 -111 -53 -123 -76 -7 -12 -26 -20 -62 -24 -194
-24 -361 -115 -448 -246 -107 -159 -173 -502 -140 -728 13 -95 62 -247 134
-417 46 -107 47 -113 43 -195 -4 -89 -23 -142 -81 -219 -14 -19 -26 -39 -26
-43 0 -14 100 -8 132 8 37 19 65 8 104 -43 29 -38 44 -41 62 -13 18 29 37 25
86 -20 25 -23 47 -37 51 -31 8 14 25 164 25 229 0 57 7 63 36 31 30 -33 173
-125 247 -158 176 -79 325 -86 466 -21 58 27 72 30 91 20 12 -6 23 -10 24 -8
1 2 7 14 13 28 l12 25 0 -32 c1 -21 11 -41 32 -62 34 -35 56 -39 61 -13 3 13
11 6 31 -25 15 -24 65 -70 114 -107 l88 -66 33 38 c46 52 97 160 128 272 20
74 27 128 31 245 7 189 -7 263 -87 470 -69 178 -90 253 -125 440 -30 164 -45
212 -96 320 -101 209 -270 353 -484 411 -82 22 -316 29 -372 10z m302 -647
c81 -18 189 -76 260 -141 36 -33 65 -63 65 -67 0 -4 -31 -14 -70 -21 -53 -10
-71 -18 -76 -32 -3 -11 -3 -22 0 -25 3 -4 41 4 85 15 43 12 83 22 88 22 15 0
79 -137 91 -195 30 -141 21 -311 -23 -415 -51 -122 -121 -204 -222 -260 -50
-27 -57 -60 -22 -104 25 -32 21 -40 -38 -60 -67 -23 -195 -21 -279 5 -206 62
-392 208 -522 408 -30 47 -59 90 -63 94 -12 15 -49 -3 -49 -24 0 -23 -3 -23
-38 -5 -89 46 -125 152 -82 240 21 44 89 96 125 96 77 0 236 138 299 260 81
156 132 204 232 219 65 10 162 6 239 -10z m-717 -857 c6 -62 -9 -92 -47 -92
-31 0 -54 21 -71 65 l-11 30 33 -32 c38 -37 50 -40 68 -18 10 12 11 27 3 60
-6 25 -8 47 -5 50 12 12 25 -16 30 -63z"/>
<path d="M1378 1589 c-21 -11 -38 -21 -38 -23 0 -2 33 -1 73 2 55 3 92 -1 150
-17 96 -26 99 -26 95 2 -3 19 -14 24 -78 39 -101 22 -157 21 -202 -3z"/>
<path d="M1491 1481 c-15 -27 -14 -63 2 -85 32 -43 81 15 61 72 -12 34 -48 42
-63 13z"/>
<path d="M1862 1488 c-17 -17 -15 -83 3 -98 37 -31 78 23 59 78 -10 30 -42 40
-62 20z"/>
<path d="M1740 1340 c-19 -36 -11 -84 26 -144 51 -86 43 -102 -78 -146 -30
-10 -36 -27 -13 -36 22 -9 110 24 139 51 37 34 34 76 -10 148 -31 50 -35 65
-30 97 7 43 -16 64 -34 30z"/>
<path d="M770 1235 c-19 -23 4 -122 31 -130 10 -4 24 -3 30 1 22 13 -9 132
-37 141 -6 2 -17 -3 -24 -12z"/>
<path d="M1416 871 c-15 -24 7 -50 62 -74 70 -32 127 -39 127 -17 0 8 -14 20
-32 25 -28 9 -22 11 42 11 68 0 71 -1 43 -13 -38 -16 -31 -39 10 -36 39 4 133
44 151 66 23 28 6 51 -32 42 -117 -25 -216 -25 -333 0 -19 4 -34 3 -38 -4z"/>
</g>
</svg>
